<mxfile host="app.diagrams.net" modified="2023-09-14T15:28:24.595Z" agent="Mozilla/5.0 (Windows NT 10.0; Win64; x64) AppleWebKit/537.36 (KHTML, like Gecko) Chrome/114.0.0.0 Safari/537.36 OPR/100.0.0.0" etag="2HuLY02DMRp7DnoL2W-0" version="21.7.4" type="google">
  <diagram name="PÃ¡gina-1" id="engV8wwkVmepwBckkgnv">
    <mxGraphModel grid="1" page="1" gridSize="10" guides="1" tooltips="1" connect="1" arrows="1" fold="1" pageScale="1" pageWidth="827" pageHeight="1169" math="0" shadow="0">
      <root>
        <mxCell id="0" />
        <mxCell id="1" parent="0" />
        <mxCell id="TG4d9jR62z2yQJC4IfSg-1" value="Cliente" style="rounded=0;whiteSpace=wrap;html=1;" vertex="1" parent="1">
          <mxGeometry x="150" y="740" width="120" height="60" as="geometry" />
        </mxCell>
        <mxCell id="TG4d9jR62z2yQJC4IfSg-2" value="&lt;u&gt;idCliente&lt;/u&gt;" style="ellipse;whiteSpace=wrap;html=1;" vertex="1" parent="1">
          <mxGeometry x="50" y="640" width="120" height="80" as="geometry" />
        </mxCell>
        <mxCell id="TG4d9jR62z2yQJC4IfSg-5" value="nombreCliente" style="ellipse;whiteSpace=wrap;html=1;" vertex="1" parent="1">
          <mxGeometry x="240" y="640" width="120" height="80" as="geometry" />
        </mxCell>
        <mxCell id="TG4d9jR62z2yQJC4IfSg-6" value="dni" style="ellipse;whiteSpace=wrap;html=1;" vertex="1" parent="1">
          <mxGeometry x="80" y="850" width="120" height="80" as="geometry" />
        </mxCell>
        <mxCell id="TG4d9jR62z2yQJC4IfSg-7" value="direccion" style="ellipse;whiteSpace=wrap;html=1;" vertex="1" parent="1">
          <mxGeometry x="220" y="850" width="120" height="80" as="geometry" />
        </mxCell>
        <mxCell id="TG4d9jR62z2yQJC4IfSg-8" value="telefono" style="ellipse;whiteSpace=wrap;html=1;" vertex="1" parent="1">
          <mxGeometry y="730" width="120" height="80" as="geometry" />
        </mxCell>
        <mxCell id="TG4d9jR62z2yQJC4IfSg-9" value="" style="endArrow=none;html=1;rounded=0;exitX=1;exitY=1;exitDx=0;exitDy=0;entryX=0.5;entryY=0;entryDx=0;entryDy=0;" edge="1" parent="1" source="TG4d9jR62z2yQJC4IfSg-2" target="TG4d9jR62z2yQJC4IfSg-1">
          <mxGeometry width="50" height="50" relative="1" as="geometry">
            <mxPoint x="640" y="820" as="sourcePoint" />
            <mxPoint x="690" y="770" as="targetPoint" />
          </mxGeometry>
        </mxCell>
        <mxCell id="TG4d9jR62z2yQJC4IfSg-10" value="" style="endArrow=none;html=1;rounded=0;exitX=0.5;exitY=1;exitDx=0;exitDy=0;" edge="1" parent="1" source="TG4d9jR62z2yQJC4IfSg-5">
          <mxGeometry width="50" height="50" relative="1" as="geometry">
            <mxPoint x="132" y="708" as="sourcePoint" />
            <mxPoint x="210" y="740" as="targetPoint" />
          </mxGeometry>
        </mxCell>
        <mxCell id="TG4d9jR62z2yQJC4IfSg-11" value="" style="endArrow=none;html=1;rounded=0;exitX=1;exitY=0.5;exitDx=0;exitDy=0;entryX=0;entryY=0.5;entryDx=0;entryDy=0;" edge="1" parent="1" source="TG4d9jR62z2yQJC4IfSg-8" target="TG4d9jR62z2yQJC4IfSg-1">
          <mxGeometry width="50" height="50" relative="1" as="geometry">
            <mxPoint x="640" y="820" as="sourcePoint" />
            <mxPoint x="690" y="770" as="targetPoint" />
          </mxGeometry>
        </mxCell>
        <mxCell id="TG4d9jR62z2yQJC4IfSg-12" value="" style="endArrow=none;html=1;rounded=0;exitX=0.5;exitY=0;exitDx=0;exitDy=0;entryX=0.5;entryY=1;entryDx=0;entryDy=0;" edge="1" parent="1" source="TG4d9jR62z2yQJC4IfSg-6" target="TG4d9jR62z2yQJC4IfSg-1">
          <mxGeometry width="50" height="50" relative="1" as="geometry">
            <mxPoint x="640" y="820" as="sourcePoint" />
            <mxPoint x="690" y="770" as="targetPoint" />
          </mxGeometry>
        </mxCell>
        <mxCell id="TG4d9jR62z2yQJC4IfSg-13" value="" style="endArrow=none;html=1;rounded=0;exitX=0.5;exitY=0;exitDx=0;exitDy=0;entryX=0.5;entryY=1;entryDx=0;entryDy=0;" edge="1" parent="1" source="TG4d9jR62z2yQJC4IfSg-7" target="TG4d9jR62z2yQJC4IfSg-1">
          <mxGeometry width="50" height="50" relative="1" as="geometry">
            <mxPoint x="640" y="820" as="sourcePoint" />
            <mxPoint x="690" y="770" as="targetPoint" />
          </mxGeometry>
        </mxCell>
        <mxCell id="TG4d9jR62z2yQJC4IfSg-14" value="Solicita" style="rhombus;whiteSpace=wrap;html=1;" vertex="1" parent="1">
          <mxGeometry x="428" y="730" width="80" height="80" as="geometry" />
        </mxCell>
        <mxCell id="TG4d9jR62z2yQJC4IfSg-15" value="Habitacion" style="rounded=0;whiteSpace=wrap;html=1;" vertex="1" parent="1">
          <mxGeometry x="608" y="740" width="120" height="60" as="geometry" />
        </mxCell>
        <mxCell id="TG4d9jR62z2yQJC4IfSg-19" value="" style="endArrow=none;html=1;rounded=0;exitX=1;exitY=0.5;exitDx=0;exitDy=0;" edge="1" parent="1" source="TG4d9jR62z2yQJC4IfSg-1">
          <mxGeometry width="50" height="50" relative="1" as="geometry">
            <mxPoint x="640" y="820" as="sourcePoint" />
            <mxPoint x="430" y="770" as="targetPoint" />
          </mxGeometry>
        </mxCell>
        <mxCell id="TG4d9jR62z2yQJC4IfSg-20" value="" style="endArrow=none;html=1;rounded=0;exitX=1;exitY=0.5;exitDx=0;exitDy=0;" edge="1" parent="1" source="TG4d9jR62z2yQJC4IfSg-14">
          <mxGeometry width="50" height="50" relative="1" as="geometry">
            <mxPoint x="628" y="820" as="sourcePoint" />
            <mxPoint x="608" y="770" as="targetPoint" />
          </mxGeometry>
        </mxCell>
        <mxCell id="TG4d9jR62z2yQJC4IfSg-22" value="&lt;u&gt;idHabitacion&lt;/u&gt;" style="ellipse;whiteSpace=wrap;html=1;" vertex="1" parent="1">
          <mxGeometry x="528" y="640" width="120" height="80" as="geometry" />
        </mxCell>
        <mxCell id="TG4d9jR62z2yQJC4IfSg-23" value="numeroHabitacion" style="ellipse;whiteSpace=wrap;html=1;" vertex="1" parent="1">
          <mxGeometry x="718" y="640" width="120" height="80" as="geometry" />
        </mxCell>
        <mxCell id="TG4d9jR62z2yQJC4IfSg-24" value="disponibilidad" style="ellipse;whiteSpace=wrap;html=1;" vertex="1" parent="1">
          <mxGeometry x="460" y="840" width="120" height="80" as="geometry" />
        </mxCell>
        <mxCell id="TG4d9jR62z2yQJC4IfSg-25" value="numeroCamas" style="ellipse;whiteSpace=wrap;html=1;" vertex="1" parent="1">
          <mxGeometry x="608" y="860" width="120" height="80" as="geometry" />
        </mxCell>
        <mxCell id="TG4d9jR62z2yQJC4IfSg-26" value="tipoHabitacion" style="ellipse;whiteSpace=wrap;html=1;" vertex="1" parent="1">
          <mxGeometry x="815" y="740" width="120" height="80" as="geometry" />
        </mxCell>
        <mxCell id="TG4d9jR62z2yQJC4IfSg-27" value="" style="endArrow=none;html=1;rounded=0;exitX=0.5;exitY=1;exitDx=0;exitDy=0;entryX=0.5;entryY=0;entryDx=0;entryDy=0;" edge="1" parent="1" source="TG4d9jR62z2yQJC4IfSg-22" target="TG4d9jR62z2yQJC4IfSg-15">
          <mxGeometry width="50" height="50" relative="1" as="geometry">
            <mxPoint x="628" y="720" as="sourcePoint" />
            <mxPoint x="678" y="670" as="targetPoint" />
          </mxGeometry>
        </mxCell>
        <mxCell id="TG4d9jR62z2yQJC4IfSg-28" value="" style="endArrow=none;html=1;rounded=0;entryX=0.5;entryY=1;entryDx=0;entryDy=0;exitX=0.5;exitY=0;exitDx=0;exitDy=0;" edge="1" parent="1" source="TG4d9jR62z2yQJC4IfSg-15" target="TG4d9jR62z2yQJC4IfSg-23">
          <mxGeometry width="50" height="50" relative="1" as="geometry">
            <mxPoint x="628" y="720" as="sourcePoint" />
            <mxPoint x="678" y="670" as="targetPoint" />
          </mxGeometry>
        </mxCell>
        <mxCell id="TG4d9jR62z2yQJC4IfSg-29" value="" style="endArrow=none;html=1;rounded=0;exitX=0.5;exitY=0;exitDx=0;exitDy=0;entryX=0.5;entryY=1;entryDx=0;entryDy=0;" edge="1" parent="1" source="TG4d9jR62z2yQJC4IfSg-24" target="TG4d9jR62z2yQJC4IfSg-15">
          <mxGeometry width="50" height="50" relative="1" as="geometry">
            <mxPoint x="628" y="720" as="sourcePoint" />
            <mxPoint x="678" y="670" as="targetPoint" />
          </mxGeometry>
        </mxCell>
        <mxCell id="TG4d9jR62z2yQJC4IfSg-30" value="" style="endArrow=none;html=1;rounded=0;exitX=1;exitY=0.5;exitDx=0;exitDy=0;entryX=0;entryY=0.5;entryDx=0;entryDy=0;" edge="1" parent="1" source="TG4d9jR62z2yQJC4IfSg-15" target="TG4d9jR62z2yQJC4IfSg-26">
          <mxGeometry width="50" height="50" relative="1" as="geometry">
            <mxPoint x="628" y="720" as="sourcePoint" />
            <mxPoint x="678" y="670" as="targetPoint" />
          </mxGeometry>
        </mxCell>
        <mxCell id="TG4d9jR62z2yQJC4IfSg-31" value="" style="endArrow=none;html=1;rounded=0;entryX=0.5;entryY=0;entryDx=0;entryDy=0;exitX=0.5;exitY=1;exitDx=0;exitDy=0;" edge="1" parent="1" source="TG4d9jR62z2yQJC4IfSg-15" target="TG4d9jR62z2yQJC4IfSg-25">
          <mxGeometry width="50" height="50" relative="1" as="geometry">
            <mxPoint x="628" y="720" as="sourcePoint" />
            <mxPoint x="678" y="670" as="targetPoint" />
          </mxGeometry>
        </mxCell>
        <mxCell id="TG4d9jR62z2yQJC4IfSg-33" value="Empleado" style="rounded=0;whiteSpace=wrap;html=1;" vertex="1" parent="1">
          <mxGeometry x="383" y="-54" width="120" height="60" as="geometry" />
        </mxCell>
        <mxCell id="TG4d9jR62z2yQJC4IfSg-36" value="&lt;u&gt;idEmpleado&lt;/u&gt;" style="ellipse;whiteSpace=wrap;html=1;" vertex="1" parent="1">
          <mxGeometry x="220" y="-134" width="120" height="80" as="geometry" />
        </mxCell>
        <mxCell id="TG4d9jR62z2yQJC4IfSg-37" value="codigoEmpleado" style="ellipse;whiteSpace=wrap;html=1;" vertex="1" parent="1">
          <mxGeometry x="230" y="6" width="120" height="80" as="geometry" />
        </mxCell>
        <mxCell id="TG4d9jR62z2yQJC4IfSg-38" value="telefonoEmpleado" style="ellipse;whiteSpace=wrap;html=1;" vertex="1" parent="1">
          <mxGeometry x="540" y="5" width="120" height="80" as="geometry" />
        </mxCell>
        <mxCell id="TG4d9jR62z2yQJC4IfSg-40" value="nombreEmpleado" style="ellipse;whiteSpace=wrap;html=1;" vertex="1" parent="1">
          <mxGeometry x="540" y="-134" width="120" height="80" as="geometry" />
        </mxCell>
        <mxCell id="TG4d9jR62z2yQJC4IfSg-41" value="" style="endArrow=none;html=1;rounded=0;exitX=0;exitY=1;exitDx=0;exitDy=0;entryX=1;entryY=0.5;entryDx=0;entryDy=0;" edge="1" parent="1" source="TG4d9jR62z2yQJC4IfSg-40" target="TG4d9jR62z2yQJC4IfSg-33">
          <mxGeometry width="50" height="50" relative="1" as="geometry">
            <mxPoint x="603" y="-4" as="sourcePoint" />
            <mxPoint x="653" y="-54" as="targetPoint" />
          </mxGeometry>
        </mxCell>
        <mxCell id="TG4d9jR62z2yQJC4IfSg-43" value="" style="endArrow=none;html=1;rounded=0;exitX=1;exitY=1;exitDx=0;exitDy=0;entryX=0;entryY=0.5;entryDx=0;entryDy=0;" edge="1" parent="1" source="TG4d9jR62z2yQJC4IfSg-36" target="TG4d9jR62z2yQJC4IfSg-33">
          <mxGeometry width="50" height="50" relative="1" as="geometry">
            <mxPoint x="603" y="-4" as="sourcePoint" />
            <mxPoint x="653" y="-54" as="targetPoint" />
          </mxGeometry>
        </mxCell>
        <mxCell id="TG4d9jR62z2yQJC4IfSg-44" value="" style="endArrow=none;html=1;rounded=0;exitX=1;exitY=0.5;exitDx=0;exitDy=0;entryX=0;entryY=0.5;entryDx=0;entryDy=0;" edge="1" parent="1" source="TG4d9jR62z2yQJC4IfSg-37" target="TG4d9jR62z2yQJC4IfSg-33">
          <mxGeometry width="50" height="50" relative="1" as="geometry">
            <mxPoint x="603" y="-4" as="sourcePoint" />
            <mxPoint x="653" y="-54" as="targetPoint" />
          </mxGeometry>
        </mxCell>
        <mxCell id="TG4d9jR62z2yQJC4IfSg-47" value="" style="endArrow=none;html=1;rounded=0;exitX=1;exitY=0.5;exitDx=0;exitDy=0;entryX=0;entryY=0;entryDx=0;entryDy=0;" edge="1" parent="1" source="TG4d9jR62z2yQJC4IfSg-33" target="TG4d9jR62z2yQJC4IfSg-38">
          <mxGeometry width="50" height="50" relative="1" as="geometry">
            <mxPoint x="603" y="-4" as="sourcePoint" />
            <mxPoint x="653" y="-54" as="targetPoint" />
          </mxGeometry>
        </mxCell>
        <mxCell id="TG4d9jR62z2yQJC4IfSg-48" value="Reserva" style="rounded=0;whiteSpace=wrap;html=1;" vertex="1" parent="1">
          <mxGeometry x="382" y="330" width="120" height="60" as="geometry" />
        </mxCell>
        <mxCell id="TG4d9jR62z2yQJC4IfSg-49" value="idHabitacion" style="ellipse;whiteSpace=wrap;html=1;" vertex="1" parent="1">
          <mxGeometry x="548" y="200" width="120" height="80" as="geometry" />
        </mxCell>
        <mxCell id="TG4d9jR62z2yQJC4IfSg-50" value="&lt;u&gt;idReserva&lt;/u&gt;" style="ellipse;whiteSpace=wrap;html=1;" vertex="1" parent="1">
          <mxGeometry x="220" y="180" width="120" height="80" as="geometry" />
        </mxCell>
        <mxCell id="TG4d9jR62z2yQJC4IfSg-51" value="idCliente" style="ellipse;whiteSpace=wrap;html=1;" vertex="1" parent="1">
          <mxGeometry x="213" y="370" width="120" height="80" as="geometry" />
        </mxCell>
        <mxCell id="TG4d9jR62z2yQJC4IfSg-52" value="tarifa" style="ellipse;whiteSpace=wrap;html=1;" vertex="1" parent="1">
          <mxGeometry x="770" y="860" width="120" height="80" as="geometry" />
        </mxCell>
        <mxCell id="TG4d9jR62z2yQJC4IfSg-53" value="" style="endArrow=none;html=1;rounded=0;entryX=1;entryY=0.5;entryDx=0;entryDy=0;exitX=0;exitY=0.5;exitDx=0;exitDy=0;" edge="1" parent="1" source="TG4d9jR62z2yQJC4IfSg-48" target="TG4d9jR62z2yQJC4IfSg-50">
          <mxGeometry width="50" height="50" relative="1" as="geometry">
            <mxPoint x="112" y="510" as="sourcePoint" />
            <mxPoint x="162" y="460" as="targetPoint" />
          </mxGeometry>
        </mxCell>
        <mxCell id="TG4d9jR62z2yQJC4IfSg-54" value="" style="endArrow=none;html=1;rounded=0;entryX=1;entryY=0.5;entryDx=0;entryDy=0;exitX=0;exitY=0.5;exitDx=0;exitDy=0;" edge="1" parent="1" source="TG4d9jR62z2yQJC4IfSg-48" target="TG4d9jR62z2yQJC4IfSg-51">
          <mxGeometry width="50" height="50" relative="1" as="geometry">
            <mxPoint x="112" y="510" as="sourcePoint" />
            <mxPoint x="162" y="460" as="targetPoint" />
          </mxGeometry>
        </mxCell>
        <mxCell id="TG4d9jR62z2yQJC4IfSg-55" value="" style="endArrow=none;html=1;rounded=0;entryX=0;entryY=0.5;entryDx=0;entryDy=0;exitX=1;exitY=0.5;exitDx=0;exitDy=0;" edge="1" parent="1" source="TG4d9jR62z2yQJC4IfSg-48" target="TG4d9jR62z2yQJC4IfSg-49">
          <mxGeometry width="50" height="50" relative="1" as="geometry">
            <mxPoint x="112" y="510" as="sourcePoint" />
            <mxPoint x="162" y="460" as="targetPoint" />
          </mxGeometry>
        </mxCell>
        <mxCell id="TG4d9jR62z2yQJC4IfSg-56" value="" style="endArrow=none;html=1;rounded=0;entryX=0;entryY=0;entryDx=0;entryDy=0;exitX=0.5;exitY=1;exitDx=0;exitDy=0;" edge="1" parent="1" source="TG4d9jR62z2yQJC4IfSg-15" target="TG4d9jR62z2yQJC4IfSg-52">
          <mxGeometry width="50" height="50" relative="1" as="geometry">
            <mxPoint x="112" y="510" as="sourcePoint" />
            <mxPoint x="162" y="460" as="targetPoint" />
          </mxGeometry>
        </mxCell>
        <mxCell id="TG4d9jR62z2yQJC4IfSg-57" value="Ocupa" style="rhombus;whiteSpace=wrap;html=1;" vertex="1" parent="1">
          <mxGeometry x="402" y="460" width="80" height="80" as="geometry" />
        </mxCell>
        <mxCell id="TG4d9jR62z2yQJC4IfSg-58" value="" style="endArrow=none;html=1;rounded=0;entryX=0.5;entryY=1;entryDx=0;entryDy=0;exitX=0.5;exitY=0;exitDx=0;exitDy=0;" edge="1" parent="1" source="TG4d9jR62z2yQJC4IfSg-57" target="TG4d9jR62z2yQJC4IfSg-48">
          <mxGeometry width="50" height="50" relative="1" as="geometry">
            <mxPoint x="300" y="500" as="sourcePoint" />
            <mxPoint x="350" y="450" as="targetPoint" />
          </mxGeometry>
        </mxCell>
        <mxCell id="TG4d9jR62z2yQJC4IfSg-59" value="" style="endArrow=none;html=1;rounded=0;entryX=0;entryY=0.5;entryDx=0;entryDy=0;exitX=0.5;exitY=0;exitDx=0;exitDy=0;" edge="1" parent="1" source="TG4d9jR62z2yQJC4IfSg-1" target="TG4d9jR62z2yQJC4IfSg-57">
          <mxGeometry width="50" height="50" relative="1" as="geometry">
            <mxPoint x="300" y="500" as="sourcePoint" />
            <mxPoint x="350" y="450" as="targetPoint" />
            <Array as="points">
              <mxPoint x="210" y="500" />
            </Array>
          </mxGeometry>
        </mxCell>
        <mxCell id="TG4d9jR62z2yQJC4IfSg-60" value="" style="endArrow=none;html=1;rounded=0;entryX=1;entryY=0.5;entryDx=0;entryDy=0;exitX=0.5;exitY=0;exitDx=0;exitDy=0;" edge="1" parent="1" source="TG4d9jR62z2yQJC4IfSg-15" target="TG4d9jR62z2yQJC4IfSg-57">
          <mxGeometry width="50" height="50" relative="1" as="geometry">
            <mxPoint x="300" y="670" as="sourcePoint" />
            <mxPoint x="350" y="620" as="targetPoint" />
            <Array as="points">
              <mxPoint x="668" y="500" />
            </Array>
          </mxGeometry>
        </mxCell>
        <mxCell id="TG4d9jR62z2yQJC4IfSg-63" value="Realiza" style="rhombus;whiteSpace=wrap;html=1;" vertex="1" parent="1">
          <mxGeometry x="402" y="110" width="80" height="80" as="geometry" />
        </mxCell>
        <mxCell id="TG4d9jR62z2yQJC4IfSg-64" value="" style="endArrow=none;html=1;rounded=0;entryX=0.5;entryY=1;entryDx=0;entryDy=0;exitX=0.5;exitY=0;exitDx=0;exitDy=0;" edge="1" parent="1" source="TG4d9jR62z2yQJC4IfSg-63" target="TG4d9jR62z2yQJC4IfSg-33">
          <mxGeometry width="50" height="50" relative="1" as="geometry">
            <mxPoint x="300" y="170" as="sourcePoint" />
            <mxPoint x="350" y="120" as="targetPoint" />
          </mxGeometry>
        </mxCell>
        <mxCell id="TG4d9jR62z2yQJC4IfSg-65" value="" style="endArrow=none;html=1;rounded=0;entryX=0.5;entryY=1;entryDx=0;entryDy=0;exitX=0.5;exitY=0;exitDx=0;exitDy=0;" edge="1" parent="1" source="TG4d9jR62z2yQJC4IfSg-48" target="TG4d9jR62z2yQJC4IfSg-63">
          <mxGeometry width="50" height="50" relative="1" as="geometry">
            <mxPoint x="452" y="120" as="sourcePoint" />
            <mxPoint x="453" y="16" as="targetPoint" />
          </mxGeometry>
        </mxCell>
        <mxCell id="TG4d9jR62z2yQJC4IfSg-66" value="(1,m)" style="text;html=1;strokeColor=none;fillColor=none;align=center;verticalAlign=middle;whiteSpace=wrap;rounded=0;" vertex="1" parent="1">
          <mxGeometry x="443" y="30" width="60" height="30" as="geometry" />
        </mxCell>
        <mxCell id="TG4d9jR62z2yQJC4IfSg-67" value="(1,1)" style="text;html=1;strokeColor=none;fillColor=none;align=center;verticalAlign=middle;whiteSpace=wrap;rounded=0;" vertex="1" parent="1">
          <mxGeometry x="382" y="295" width="60" height="30" as="geometry" />
        </mxCell>
        <mxCell id="TG4d9jR62z2yQJC4IfSg-68" value="(n,m)" style="text;html=1;strokeColor=none;fillColor=none;align=center;verticalAlign=middle;whiteSpace=wrap;rounded=0;" vertex="1" parent="1">
          <mxGeometry x="488" y="135" width="60" height="30" as="geometry" />
        </mxCell>
        <mxCell id="TG4d9jR62z2yQJC4IfSg-69" value="(1,1)" style="text;html=1;strokeColor=none;fillColor=none;align=center;verticalAlign=middle;whiteSpace=wrap;rounded=0;" vertex="1" parent="1">
          <mxGeometry x="273" y="470" width="60" height="30" as="geometry" />
        </mxCell>
        <mxCell id="TG4d9jR62z2yQJC4IfSg-70" value="(1,m)" style="text;html=1;strokeColor=none;fillColor=none;align=center;verticalAlign=middle;whiteSpace=wrap;rounded=0;" vertex="1" parent="1">
          <mxGeometry x="153" y="630" width="60" height="30" as="geometry" />
        </mxCell>
        <mxCell id="TG4d9jR62z2yQJC4IfSg-71" value="(1,1)" style="text;html=1;strokeColor=none;fillColor=none;align=center;verticalAlign=middle;whiteSpace=wrap;rounded=0;" vertex="1" parent="1">
          <mxGeometry x="558" y="470" width="60" height="30" as="geometry" />
        </mxCell>
        <mxCell id="TG4d9jR62z2yQJC4IfSg-72" value="(1,m)" style="text;html=1;strokeColor=none;fillColor=none;align=center;verticalAlign=middle;whiteSpace=wrap;rounded=0;" vertex="1" parent="1">
          <mxGeometry x="670" y="610" width="60" height="30" as="geometry" />
        </mxCell>
        <mxCell id="v5fJx7X3YHtNdIZ5RWcw-1" value="idEmpleado" style="ellipse;whiteSpace=wrap;html=1;" vertex="1" parent="1">
          <mxGeometry x="570" y="390" width="120" height="80" as="geometry" />
        </mxCell>
        <mxCell id="v5fJx7X3YHtNdIZ5RWcw-2" value="" style="endArrow=none;html=1;rounded=0;exitX=1;exitY=0.5;exitDx=0;exitDy=0;entryX=0;entryY=0.5;entryDx=0;entryDy=0;" edge="1" parent="1" source="TG4d9jR62z2yQJC4IfSg-48" target="v5fJx7X3YHtNdIZ5RWcw-1">
          <mxGeometry width="50" height="50" relative="1" as="geometry">
            <mxPoint x="670" y="190" as="sourcePoint" />
            <mxPoint x="720" y="140" as="targetPoint" />
          </mxGeometry>
        </mxCell>
        <mxCell id="oZXjTEljgxWrw6TTP2i--2" value="fechaEntrada" style="ellipse;whiteSpace=wrap;html=1;" vertex="1" parent="1">
          <mxGeometry x="190" y="280" width="120" height="80" as="geometry" />
        </mxCell>
        <mxCell id="oZXjTEljgxWrw6TTP2i--3" value="fechaSalida" style="ellipse;whiteSpace=wrap;html=1;" vertex="1" parent="1">
          <mxGeometry x="558" y="295" width="120" height="80" as="geometry" />
        </mxCell>
        <mxCell id="oZXjTEljgxWrw6TTP2i--4" value="" style="endArrow=none;html=1;rounded=0;exitX=1;exitY=0.5;exitDx=0;exitDy=0;entryX=0;entryY=0.5;entryDx=0;entryDy=0;" edge="1" parent="1" source="oZXjTEljgxWrw6TTP2i--2" target="TG4d9jR62z2yQJC4IfSg-48">
          <mxGeometry width="50" height="50" relative="1" as="geometry">
            <mxPoint x="500" y="440" as="sourcePoint" />
            <mxPoint x="550" y="390" as="targetPoint" />
          </mxGeometry>
        </mxCell>
        <mxCell id="oZXjTEljgxWrw6TTP2i--5" value="" style="endArrow=none;html=1;rounded=0;entryX=0;entryY=0.5;entryDx=0;entryDy=0;exitX=1;exitY=0.5;exitDx=0;exitDy=0;" edge="1" parent="1" source="TG4d9jR62z2yQJC4IfSg-48" target="oZXjTEljgxWrw6TTP2i--3">
          <mxGeometry width="50" height="50" relative="1" as="geometry">
            <mxPoint x="500" y="440" as="sourcePoint" />
            <mxPoint x="550" y="390" as="targetPoint" />
          </mxGeometry>
        </mxCell>
      </root>
    </mxGraphModel>
  </diagram>
</mxfile>
